<svg width="147" height="127" viewBox="0 0 147 127" fill="none" xmlns="http://www.w3.org/2000/svg">
<g id="percent">
<path id="%" d="M40.1793 12.9678C47.0022 12.9678 52.3859 14.031 56.3304 16.1575C60.3815 18.284 63.2599 21.7395 64.9656 26.524C66.7779 31.2023 67.6841 37.6349 67.6841 45.8218C67.6841 53.9024 66.7779 60.335 64.9656 65.1195C63.2599 69.9041 60.3815 73.3596 56.3304 75.4861C52.3859 77.5063 47.0022 78.5163 40.1793 78.5163C33.4631 78.5163 28.0794 77.5063 24.0283 75.4861C20.0838 73.3596 17.2587 69.9041 15.553 65.1195C13.8473 60.335 12.9944 53.9024 12.9944 45.8218C12.9944 37.6349 13.8473 31.2023 15.553 26.524C17.2587 21.7395 20.0838 18.284 24.0283 16.1575C28.0794 14.031 33.4631 12.9678 40.1793 12.9678ZM120.295 15.2006L54.2515 125.246H39.3798L105.423 15.2006H120.295ZM40.1793 26.0456C37.6208 26.0456 35.5952 26.5772 34.1027 27.6404C32.7168 28.7037 31.7574 30.6707 31.2243 33.5414C30.6913 36.3058 30.4248 40.3993 30.4248 45.8218C30.4248 51.2443 30.6913 55.3909 31.2243 58.2617C31.7574 61.1324 32.7168 63.0994 34.1027 64.1626C35.5952 65.1195 37.6208 65.598 40.1793 65.598C42.8445 65.598 44.8701 65.1195 46.256 64.1626C47.7485 63.0994 48.7612 61.1324 49.2943 58.2617C49.9339 55.3909 50.2537 51.2443 50.2537 45.8218C50.2537 40.3993 49.9339 36.3058 49.2943 33.5414C48.7612 30.6707 47.7485 28.7037 46.256 27.6404C44.8701 26.5772 42.8445 26.0456 40.1793 26.0456ZM119.655 61.6109C126.371 61.6109 131.702 62.6741 135.646 64.8006C139.697 66.8207 142.576 70.2231 144.282 75.0076C146.094 79.7922 147 86.2248 147 94.3054C147 102.386 146.094 108.872 144.282 113.763C142.576 118.547 139.697 121.95 135.646 123.97C131.702 125.99 126.371 127 119.655 127C112.832 127 107.449 125.99 103.504 123.97C99.5597 121.95 96.6813 118.547 94.869 113.763C93.1632 108.872 92.3104 102.386 92.3104 94.3054C92.3104 86.2248 93.1632 79.7922 94.869 75.0076C96.6813 70.2231 99.5597 66.8207 103.504 64.8006C107.449 62.6741 112.832 61.6109 119.655 61.6109ZM119.495 74.5292C116.937 74.5292 114.911 75.0608 113.419 76.124C112.033 77.1873 111.073 79.1543 110.54 82.025C110.007 84.7894 109.741 88.8829 109.741 94.3054C109.741 99.7279 110.007 103.875 110.54 106.745C111.073 109.616 112.033 111.583 113.419 112.646C114.911 113.603 116.937 114.082 119.495 114.082C122.16 114.082 124.186 113.603 125.572 112.646C127.064 111.583 128.077 109.616 128.61 106.745C129.25 103.875 129.57 99.7279 129.57 94.3054C129.57 88.8829 129.25 84.7894 128.61 82.025C128.077 79.1543 127.064 77.1873 125.572 76.124C124.186 75.0608 122.16 74.5292 119.495 74.5292Z" fill="#F15152"/>
<path id="%_2" d="M47.0197 66.8534L47.0264 66.85L47.0331 66.8465C51.4516 64.5271 54.5612 60.7595 56.3791 55.6693C58.2784 50.6473 59.1896 44.0158 59.1896 35.854C59.1896 27.5945 58.2804 20.9574 56.3772 16.0334C54.5601 10.9487 51.4535 7.18429 47.0404 4.86543C42.7931 2.57792 37.1334 1.5 30.1849 1.5C23.331 1.5 17.6799 2.58175 13.3367 4.86157L13.3294 4.86543L13.3221 4.86936C9.00841 7.19486 5.96021 10.966 4.14749 16.0475C2.35672 20.9619 1.5 27.5926 1.5 35.854C1.5 44.0172 2.35853 50.6425 4.14568 55.6555C5.95818 60.7396 9.00698 64.5124 13.3221 66.8387L13.3431 66.85L13.3645 66.8607C17.6995 69.0224 23.3396 70.0486 30.1849 70.0486C37.1291 70.0486 42.7798 69.0249 47.0197 66.8534ZM111.587 6.00468L112.95 3.7328H110.3H95.4286H94.5795L94.1425 4.46091L28.0992 114.506L26.7357 116.778H29.3853H44.2571H45.1063L45.5432 116.05L111.587 6.00468ZM22.7027 23.8576L22.7028 23.8576L22.7047 23.8475C23.2087 21.133 24.0599 19.6127 25.001 18.8785C26.1559 18.0648 27.8336 17.5778 30.1849 17.5778C32.6843 17.5778 34.3304 18.0817 35.3485 18.8628L35.3696 18.879L35.3912 18.8944C36.4236 19.6299 37.3226 21.1415 37.825 23.8475L37.831 23.8798L37.8384 23.9118C38.4388 26.5062 38.7593 30.4622 38.7593 35.854C38.7593 41.2422 38.4394 45.2586 37.8357 47.9677L37.8299 47.9938L37.825 48.0201C37.324 50.7183 36.4287 52.2291 35.4 52.9669C34.3712 53.6731 32.7015 54.1302 30.1849 54.1302C27.8303 54.1302 26.1379 53.6939 24.9732 52.9671C24.0432 52.2247 23.2037 50.7078 22.7047 48.0201C22.197 45.286 21.9303 41.2484 21.9303 35.854C21.9303 30.4565 22.1974 26.4783 22.7027 23.8576ZM83.4582 104.289L83.4647 104.308L83.4718 104.326C85.3941 109.401 88.4997 113.121 92.826 115.337C97.0658 117.508 102.717 118.532 109.661 118.532C116.499 118.532 122.092 117.508 126.329 115.341C130.764 113.127 133.879 109.401 135.697 104.307C137.593 99.1847 138.506 92.5043 138.506 84.3376C138.506 76.176 137.594 69.5446 135.695 64.5226C133.879 59.4365 130.769 55.7153 126.343 53.5012C122.1 51.2202 116.5 50.1431 109.661 50.1431C102.716 50.1431 97.0583 51.2199 92.8117 53.505C88.4929 55.7216 85.392 59.4391 83.4718 64.5085L83.4666 64.5223L83.4616 64.5362C81.6745 69.5492 80.8159 76.1745 80.8159 84.3376C80.8159 92.5031 81.675 99.176 83.4582 104.289ZM102.019 72.3412L102.021 72.3311C102.525 69.6166 103.376 68.0964 104.317 67.3621C105.472 66.5484 107.149 66.0614 109.501 66.0614C112 66.0614 113.646 66.5653 114.664 67.3464L114.686 67.3625L114.707 67.378C115.74 68.1135 116.639 69.6251 117.141 72.3311L117.147 72.3634L117.154 72.3954C117.755 74.9898 118.075 78.9458 118.075 84.3376C118.075 89.7258 117.755 93.7422 117.152 96.4513L117.146 96.4774L117.141 96.5037C116.64 99.202 115.745 100.713 114.716 101.451C113.687 102.157 112.017 102.614 109.501 102.614C107.146 102.614 105.454 102.177 104.289 101.451C103.359 100.708 102.52 99.1914 102.021 96.5037C101.513 93.7696 101.246 89.732 101.246 84.3376C101.246 78.9401 101.513 74.9619 102.019 72.3412Z" stroke="#070C11" stroke-width="3"/>
</g>
</svg>
